<svg viewBox="0 0 460 268" xmlns="http://www.w3.org/2000/svg" font-family="'IBM Plex Mono',monospace"><rect width="460" height="268" fill="#FFFFFF"/><path d="M38.0,94.8 L39.7,95.6 L41.5,96.4 L43.2,97.1 L44.9,97.9 L46.7,98.6 L48.4,99.3 L50.1,100.0 L51.8,100.7 L53.6,101.4 L55.3,102.0 L57.0,102.6 L58.8,103.3 L60.5,103.9 L62.2,104.5 L64.0,105.0 L65.7,105.6 L67.4,106.2 L69.1,106.7 L70.9,107.2 L72.6,107.7 L74.3,108.2 L76.1,108.7 L77.8,109.2 L79.5,109.7 L81.3,110.1 L83.0,110.6 L84.7,111.0 L86.4,111.4 L88.2,111.9 L89.9,112.3 L91.6,112.7 L93.4,113.0 L95.1,113.4 L96.8,113.8 L98.6,114.2 L100.3,114.5 L102.0,114.9 L103.8,115.2 L105.5,115.5 L107.2,115.9 L108.9,116.2 L110.7,116.5 L112.4,116.8 L114.1,117.1 L115.9,117.4 L117.6,117.6 L119.3,117.9 L121.1,118.2 L122.8,118.4 L124.5,118.7 L126.2,119.0 L128.0,119.2 L129.7,119.4 L131.4,119.7 L133.2,119.9 L134.9,120.1 L136.6,120.3 L138.4,120.5 L140.1,120.8 L141.8,121.0 L143.6,121.2 L145.3,121.4 L147.0,121.5 L148.7,121.7 L150.5,121.9 L152.2,122.1 L153.9,122.3 L155.7,122.4 L157.4,122.6 L159.1,122.8 L160.9,122.9 L162.6,123.1 L164.3,123.2 L166.0,123.4 L167.8,123.5 L169.5,123.6 L171.2,123.8 L173.0,123.9 L174.7,124.0 L176.4,124.2 L178.2,124.3 L179.9,124.4 L181.6,124.5 L183.3,124.7 L185.1,124.8 L186.8,124.9 L188.5,125.0 L190.3,125.1 L192.0,125.2 L192.0,170.8 L190.3,170.7 L188.5,170.6 L186.8,170.5 L185.1,170.4 L183.3,170.3 L181.6,170.1 L179.9,170.0 L178.2,169.9 L176.4,169.8 L174.7,169.6 L173.0,169.5 L171.2,169.4 L169.5,169.2 L167.8,169.1 L166.0,169.0 L164.3,168.8 L162.6,168.7 L160.9,168.5 L159.1,168.4 L157.4,168.2 L155.7,168.0 L153.9,167.9 L152.2,167.7 L150.5,167.5 L148.7,167.3 L147.0,167.1 L145.3,167.0 L143.6,166.8 L141.8,166.6 L140.1,166.4 L138.4,166.1 L136.6,165.9 L134.9,165.7 L133.2,165.5 L131.4,165.3 L129.7,165.0 L128.0,164.8 L126.2,164.6 L124.5,164.3 L122.8,164.0 L121.1,163.8 L119.3,163.5 L117.6,163.2 L115.9,163.0 L114.1,162.7 L112.4,162.4 L110.7,162.1 L108.9,161.8 L107.2,161.5 L105.5,161.1 L103.8,160.8 L102.0,160.5 L100.3,160.1 L98.6,159.8 L96.8,159.4 L95.1,159.0 L93.4,158.6 L91.6,158.3 L89.9,157.9 L88.2,157.5 L86.4,157.0 L84.7,156.6 L83.0,156.2 L81.3,155.7 L79.5,155.3 L77.8,154.8 L76.1,154.3 L74.3,153.8 L72.6,153.3 L70.9,152.8 L69.1,152.3 L67.4,151.8 L65.7,151.2 L64.0,150.6 L62.2,150.1 L60.5,149.5 L58.8,148.9 L57.0,148.2 L55.3,147.6 L53.6,147.0 L51.8,146.3 L50.1,145.6 L48.4,144.9 L46.7,144.2 L44.9,143.5 L43.2,142.7 L41.5,142.0 L39.7,141.2 L38.0,140.4 Z" fill="#00897B" opacity="0.1"/><path d="M38.0,102.6 L39.7,103.4 L41.5,104.2 L43.2,104.9 L44.9,105.7 L46.7,106.4 L48.4,107.1 L50.1,107.8 L51.8,108.5 L53.6,109.2 L55.3,109.8 L57.0,110.4 L58.8,111.1 L60.5,111.7 L62.2,112.3 L64.0,112.8 L65.7,113.4 L67.4,114.0 L69.1,114.5 L70.9,115.0 L72.6,115.5 L74.3,116.0 L76.1,116.5 L77.8,117.0 L79.5,117.5 L81.3,117.9 L83.0,118.4 L84.7,118.8 L86.4,119.2 L88.2,119.7 L89.9,120.1 L91.6,120.5 L93.4,120.8 L95.1,121.2 L96.8,121.6 L98.6,122.0 L100.3,122.3 L102.0,122.7 L103.8,123.0 L105.5,123.3 L107.2,123.7 L108.9,124.0 L110.7,124.3 L112.4,124.6 L114.1,124.9 L115.9,125.2 L117.6,125.4 L119.3,125.7 L121.1,126.0 L122.8,126.2 L124.5,126.5 L126.2,126.8 L128.0,127.0 L129.7,127.2 L131.4,127.5 L133.2,127.7 L134.9,127.9 L136.6,128.1 L138.4,128.3 L140.1,128.6 L141.8,128.8 L143.6,129.0 L145.3,129.2 L147.0,129.3 L148.7,129.5 L150.5,129.7 L152.2,129.9 L153.9,130.1 L155.7,130.2 L157.4,130.4 L159.1,130.6 L160.9,130.7 L162.6,130.9 L164.3,131.0 L166.0,131.2 L167.8,131.3 L169.5,131.4 L171.2,131.6 L173.0,131.7 L174.7,131.8 L176.4,132.0 L178.2,132.1 L179.9,132.2 L181.6,132.3 L183.3,132.5 L185.1,132.6 L186.8,132.7 L188.5,132.8 L190.3,132.9 L192.0,133.0 L192.0,163.0 L190.3,162.9 L188.5,162.8 L186.8,162.7 L185.1,162.6 L183.3,162.5 L181.6,162.3 L179.9,162.2 L178.2,162.1 L176.4,162.0 L174.7,161.8 L173.0,161.7 L171.2,161.6 L169.5,161.4 L167.8,161.3 L166.0,161.2 L164.3,161.0 L162.6,160.9 L160.9,160.7 L159.1,160.6 L157.4,160.4 L155.7,160.2 L153.9,160.1 L152.2,159.9 L150.5,159.7 L148.7,159.5 L147.0,159.3 L145.3,159.2 L143.6,159.0 L141.8,158.8 L140.1,158.6 L138.4,158.3 L136.6,158.1 L134.9,157.9 L133.2,157.7 L131.4,157.5 L129.7,157.2 L128.0,157.0 L126.2,156.8 L124.5,156.5 L122.8,156.2 L121.1,156.0 L119.3,155.7 L117.6,155.4 L115.9,155.2 L114.1,154.9 L112.4,154.6 L110.7,154.3 L108.9,154.0 L107.2,153.7 L105.5,153.3 L103.8,153.0 L102.0,152.7 L100.3,152.3 L98.6,152.0 L96.8,151.6 L95.1,151.2 L93.4,150.8 L91.6,150.5 L89.9,150.1 L88.2,149.7 L86.4,149.2 L84.7,148.8 L83.0,148.4 L81.3,147.9 L79.5,147.5 L77.8,147.0 L76.1,146.5 L74.3,146.0 L72.6,145.5 L70.9,145.0 L69.1,144.5 L67.4,144.0 L65.7,143.4 L64.0,142.8 L62.2,142.3 L60.5,141.7 L58.8,141.1 L57.0,140.4 L55.3,139.8 L53.6,139.2 L51.8,138.5 L50.1,137.8 L48.4,137.1 L46.7,136.4 L44.9,135.7 L43.2,134.9 L41.5,134.2 L39.7,133.4 L38.0,132.6 Z" fill="#00897B" opacity="0.14"/><path d="M38.0,109.8 L39.7,110.6 L41.5,111.4 L43.2,112.1 L44.9,112.9 L46.7,113.6 L48.4,114.3 L50.1,115.0 L51.8,115.7 L53.6,116.4 L55.3,117.0 L57.0,117.6 L58.8,118.3 L60.5,118.9 L62.2,119.5 L64.0,120.0 L65.7,120.6 L67.4,121.2 L69.1,121.7 L70.9,122.2 L72.6,122.7 L74.3,123.2 L76.1,123.7 L77.8,124.2 L79.5,124.7 L81.3,125.1 L83.0,125.6 L84.7,126.0 L86.4,126.4 L88.2,126.9 L89.9,127.3 L91.6,127.7 L93.4,128.0 L95.1,128.4 L96.8,128.8 L98.6,129.2 L100.3,129.5 L102.0,129.9 L103.8,130.2 L105.5,130.5 L107.2,130.9 L108.9,131.2 L110.7,131.5 L112.4,131.8 L114.1,132.1 L115.9,132.4 L117.6,132.6 L119.3,132.9 L121.1,133.2 L122.8,133.4 L124.5,133.7 L126.2,134.0 L128.0,134.2 L129.7,134.4 L131.4,134.7 L133.2,134.9 L134.9,135.1 L136.6,135.3 L138.4,135.5 L140.1,135.8 L141.8,136.0 L143.6,136.2 L145.3,136.4 L147.0,136.5 L148.7,136.7 L150.5,136.9 L152.2,137.1 L153.9,137.3 L155.7,137.4 L157.4,137.6 L159.1,137.8 L160.9,137.9 L162.6,138.1 L164.3,138.2 L166.0,138.4 L167.8,138.5 L169.5,138.6 L171.2,138.8 L173.0,138.9 L174.7,139.0 L176.4,139.2 L178.2,139.3 L179.9,139.4 L181.6,139.5 L183.3,139.7 L185.1,139.8 L186.8,139.9 L188.5,140.0 L190.3,140.1 L192.0,140.2 L192.0,155.8 L190.3,155.7 L188.5,155.6 L186.8,155.5 L185.1,155.4 L183.3,155.3 L181.6,155.1 L179.9,155.0 L178.2,154.9 L176.4,154.8 L174.7,154.6 L173.0,154.5 L171.2,154.4 L169.5,154.2 L167.8,154.1 L166.0,154.0 L164.3,153.8 L162.6,153.7 L160.9,153.5 L159.1,153.4 L157.4,153.2 L155.7,153.0 L153.9,152.9 L152.2,152.7 L150.5,152.5 L148.7,152.3 L147.0,152.1 L145.3,152.0 L143.6,151.8 L141.8,151.6 L140.1,151.4 L138.4,151.1 L136.6,150.9 L134.9,150.7 L133.2,150.5 L131.4,150.3 L129.7,150.0 L128.0,149.8 L126.2,149.6 L124.5,149.3 L122.8,149.0 L121.1,148.8 L119.3,148.5 L117.6,148.2 L115.9,148.0 L114.1,147.7 L112.4,147.4 L110.7,147.1 L108.9,146.8 L107.2,146.5 L105.5,146.1 L103.8,145.8 L102.0,145.5 L100.3,145.1 L98.6,144.8 L96.8,144.4 L95.1,144.0 L93.4,143.6 L91.6,143.3 L89.9,142.9 L88.2,142.5 L86.4,142.0 L84.7,141.6 L83.0,141.2 L81.3,140.7 L79.5,140.3 L77.8,139.8 L76.1,139.3 L74.3,138.8 L72.6,138.3 L70.9,137.8 L69.1,137.3 L67.4,136.8 L65.7,136.2 L64.0,135.6 L62.2,135.1 L60.5,134.5 L58.8,133.9 L57.0,133.2 L55.3,132.6 L53.6,132.0 L51.8,131.3 L50.1,130.6 L48.4,129.9 L46.7,129.2 L44.9,128.5 L43.2,127.7 L41.5,127.0 L39.7,126.2 L38.0,125.4 Z" fill="#00897B" opacity="0.2"/><path d="M38.0,117.6 L39.7,118.4 L41.5,119.2 L43.2,119.9 L44.9,120.7 L46.7,121.4 L48.4,122.1 L50.1,122.8 L51.8,123.5 L53.6,124.2 L55.3,124.8 L57.0,125.4 L58.8,126.1 L60.5,126.7 L62.2,127.3 L64.0,127.8 L65.7,128.4 L67.4,129.0 L69.1,129.5 L70.9,130.0 L72.6,130.5 L74.3,131.0 L76.1,131.5 L77.8,132.0 L79.5,132.5 L81.3,132.9 L83.0,133.4 L84.7,133.8 L86.4,134.2 L88.2,134.7 L89.9,135.1 L91.6,135.5 L93.4,135.8 L95.1,136.2 L96.8,136.6 L98.6,137.0 L100.3,137.3 L102.0,137.7 L103.8,138.0 L105.5,138.3 L107.2,138.7 L108.9,139.0 L110.7,139.3 L112.4,139.6 L114.1,139.9 L115.9,140.2 L117.6,140.4 L119.3,140.7 L121.1,141.0 L122.8,141.2 L124.5,141.5 L126.2,141.8 L128.0,142.0 L129.7,142.2 L131.4,142.5 L133.2,142.7 L134.9,142.9 L136.6,143.1 L138.4,143.3 L140.1,143.6 L141.8,143.8 L143.6,144.0 L145.3,144.2 L147.0,144.3 L148.7,144.5 L150.5,144.7 L152.2,144.9 L153.9,145.1 L155.7,145.2 L157.4,145.4 L159.1,145.6 L160.9,145.7 L162.6,145.9 L164.3,146.0 L166.0,146.2 L167.8,146.3 L169.5,146.4 L171.2,146.6 L173.0,146.7 L174.7,146.8 L176.4,147.0 L178.2,147.1 L179.9,147.2 L181.6,147.3 L183.3,147.5 L185.1,147.6 L186.8,147.7 L188.5,147.8 L190.3,147.9 L192.0,148.0" fill="none" stroke="#00897B" stroke-width="2.1"/><circle cx="43.0" cy="84.6" r="2.6" fill="#1C1C1A" opacity="0.45"/><circle cx="52.0" cy="84.6" r="2.6" fill="#1C1C1A" opacity="0.45"/><circle cx="61.0" cy="100.4" r="2.6" fill="#1C1C1A" opacity="0.45"/><circle cx="70.0" cy="89.1" r="2.6" fill="#1C1C1A" opacity="0.45"/><circle cx="79.0" cy="101.0" r="2.6" fill="#1C1C1A" opacity="0.45"/><circle cx="88.0" cy="113.1" r="2.6" fill="#1C1C1A" opacity="0.45"/><circle cx="97.0" cy="107.3" r="2.6" fill="#1C1C1A" opacity="0.45"/><circle cx="106.0" cy="98.6" r="2.6" fill="#1C1C1A" opacity="0.45"/><circle cx="115.0" cy="102.4" r="2.6" fill="#1C1C1A" opacity="0.45"/><circle cx="124.0" cy="116.3" r="2.6" fill="#1C1C1A" opacity="0.45"/><circle cx="133.0" cy="102.7" r="2.6" fill="#1C1C1A" opacity="0.45"/><circle cx="142.0" cy="109.7" r="2.6" fill="#1C1C1A" opacity="0.45"/><circle cx="151.0" cy="106.4" r="2.6" fill="#1C1C1A" opacity="0.45"/><circle cx="160.0" cy="108.0" r="2.6" fill="#1C1C1A" opacity="0.45"/><circle cx="169.0" cy="121.3" r="2.6" fill="#1C1C1A" opacity="0.45"/><circle cx="178.0" cy="109.3" r="2.6" fill="#1C1C1A" opacity="0.45"/><circle cx="187.0" cy="118.0" r="2.6" fill="#1C1C1A" opacity="0.45"/><line x1="38" y1="197" x2="192" y2="197" stroke="#1C1C1A" stroke-opacity="0.22"/><line x1="38" y1="37" x2="38" y2="197" stroke="#1C1C1A" stroke-opacity="0.22"/><text x="115" y="34" text-anchor="middle" font-size="11.5" fill="#1C1C1A" font-weight="600">before</text><text x="192" y="212" text-anchor="end" font-size="10" fill="#1C1C1A" fill-opacity="0.45">age &#8594;</text><path d="M278.0,60.0 L279.7,60.8 L281.5,61.6 L283.2,62.3 L284.9,63.1 L286.7,63.8 L288.4,64.5 L290.1,65.2 L291.8,65.9 L293.6,66.6 L295.3,67.2 L297.0,67.8 L298.8,68.5 L300.5,69.1 L302.2,69.7 L304.0,70.2 L305.7,70.8 L307.4,71.4 L309.1,71.9 L310.9,72.4 L312.6,72.9 L314.3,73.4 L316.1,73.9 L317.8,74.4 L319.5,74.9 L321.3,75.3 L323.0,75.8 L324.7,76.2 L326.4,76.6 L328.2,77.1 L329.9,77.5 L331.6,77.9 L333.4,78.2 L335.1,78.6 L336.8,79.0 L338.6,79.4 L340.3,79.7 L342.0,80.1 L343.8,80.4 L345.5,80.7 L347.2,81.1 L348.9,81.4 L350.7,81.7 L352.4,82.0 L354.1,82.3 L355.9,82.6 L357.6,82.8 L359.3,83.1 L361.1,83.4 L362.8,83.6 L364.5,83.9 L366.2,84.2 L368.0,84.4 L369.7,84.6 L371.4,84.9 L373.2,85.1 L374.9,85.3 L376.6,85.5 L378.4,85.7 L380.1,86.0 L381.8,86.2 L383.6,86.4 L385.3,86.6 L387.0,86.7 L388.7,86.9 L390.5,87.1 L392.2,87.3 L393.9,87.5 L395.7,87.6 L397.4,87.8 L399.1,88.0 L400.9,88.1 L402.6,88.3 L404.3,88.4 L406.0,88.6 L407.8,88.7 L409.5,88.8 L411.2,89.0 L413.0,89.1 L414.7,89.2 L416.4,89.4 L418.2,89.5 L419.9,89.6 L421.6,89.7 L423.3,89.9 L425.1,90.0 L426.8,90.1 L428.5,90.2 L430.3,90.3 L432.0,90.4 L432.0,136.0 L430.3,135.9 L428.5,135.8 L426.8,135.7 L425.1,135.6 L423.3,135.5 L421.6,135.3 L419.9,135.2 L418.2,135.1 L416.4,135.0 L414.7,134.8 L413.0,134.7 L411.2,134.6 L409.5,134.4 L407.8,134.3 L406.0,134.2 L404.3,134.0 L402.6,133.9 L400.9,133.7 L399.1,133.6 L397.4,133.4 L395.7,133.2 L393.9,133.1 L392.2,132.9 L390.5,132.7 L388.7,132.5 L387.0,132.3 L385.3,132.2 L383.6,132.0 L381.8,131.8 L380.1,131.6 L378.4,131.3 L376.6,131.1 L374.9,130.9 L373.2,130.7 L371.4,130.5 L369.7,130.2 L368.0,130.0 L366.2,129.8 L364.5,129.5 L362.8,129.2 L361.1,129.0 L359.3,128.7 L357.6,128.4 L355.9,128.2 L354.1,127.9 L352.4,127.6 L350.7,127.3 L348.9,127.0 L347.2,126.7 L345.5,126.3 L343.8,126.0 L342.0,125.7 L340.3,125.3 L338.6,125.0 L336.8,124.6 L335.1,124.2 L333.4,123.8 L331.6,123.5 L329.9,123.1 L328.2,122.7 L326.4,122.2 L324.7,121.8 L323.0,121.4 L321.3,120.9 L319.5,120.5 L317.8,120.0 L316.1,119.5 L314.3,119.0 L312.6,118.5 L310.9,118.0 L309.1,117.5 L307.4,117.0 L305.7,116.4 L304.0,115.8 L302.2,115.3 L300.5,114.7 L298.8,114.1 L297.0,113.4 L295.3,112.8 L293.6,112.2 L291.8,111.5 L290.1,110.8 L288.4,110.1 L286.7,109.4 L284.9,108.7 L283.2,107.9 L281.5,107.2 L279.7,106.4 L278.0,105.6 Z" fill="#00897B" opacity="0.1"/><path d="M278.0,67.8 L279.7,68.6 L281.5,69.4 L283.2,70.1 L284.9,70.9 L286.7,71.6 L288.4,72.3 L290.1,73.0 L291.8,73.7 L293.6,74.4 L295.3,75.0 L297.0,75.6 L298.8,76.3 L300.5,76.9 L302.2,77.5 L304.0,78.0 L305.7,78.6 L307.4,79.2 L309.1,79.7 L310.9,80.2 L312.6,80.7 L314.3,81.2 L316.1,81.7 L317.8,82.2 L319.5,82.7 L321.3,83.1 L323.0,83.6 L324.7,84.0 L326.4,84.4 L328.2,84.9 L329.9,85.3 L331.6,85.7 L333.4,86.0 L335.1,86.4 L336.8,86.8 L338.6,87.2 L340.3,87.5 L342.0,87.9 L343.8,88.2 L345.5,88.5 L347.2,88.9 L348.9,89.2 L350.7,89.5 L352.4,89.8 L354.1,90.1 L355.9,90.4 L357.6,90.6 L359.3,90.9 L361.1,91.2 L362.8,91.4 L364.5,91.7 L366.2,92.0 L368.0,92.2 L369.7,92.4 L371.4,92.7 L373.2,92.9 L374.9,93.1 L376.6,93.3 L378.4,93.5 L380.1,93.8 L381.8,94.0 L383.6,94.2 L385.3,94.4 L387.0,94.5 L388.7,94.7 L390.5,94.9 L392.2,95.1 L393.9,95.3 L395.7,95.4 L397.4,95.6 L399.1,95.8 L400.9,95.9 L402.6,96.1 L404.3,96.2 L406.0,96.4 L407.8,96.5 L409.5,96.6 L411.2,96.8 L413.0,96.9 L414.7,97.0 L416.4,97.2 L418.2,97.3 L419.9,97.4 L421.6,97.5 L423.3,97.7 L425.1,97.8 L426.8,97.9 L428.5,98.0 L430.3,98.1 L432.0,98.2 L432.0,128.2 L430.3,128.1 L428.5,128.0 L426.8,127.9 L425.1,127.8 L423.3,127.7 L421.6,127.5 L419.9,127.4 L418.2,127.3 L416.4,127.2 L414.7,127.0 L413.0,126.9 L411.2,126.8 L409.5,126.6 L407.8,126.5 L406.0,126.4 L404.3,126.2 L402.6,126.1 L400.9,125.9 L399.1,125.8 L397.4,125.6 L395.7,125.4 L393.9,125.3 L392.2,125.1 L390.5,124.9 L388.7,124.7 L387.0,124.5 L385.3,124.4 L383.6,124.2 L381.8,124.0 L380.1,123.8 L378.4,123.5 L376.6,123.3 L374.9,123.1 L373.2,122.9 L371.4,122.7 L369.7,122.4 L368.0,122.2 L366.2,122.0 L364.5,121.7 L362.8,121.4 L361.1,121.2 L359.3,120.9 L357.6,120.6 L355.9,120.4 L354.1,120.1 L352.4,119.8 L350.7,119.5 L348.9,119.2 L347.2,118.9 L345.5,118.5 L343.8,118.2 L342.0,117.9 L340.3,117.5 L338.6,117.2 L336.8,116.8 L335.1,116.4 L333.4,116.0 L331.6,115.7 L329.9,115.3 L328.2,114.9 L326.4,114.4 L324.7,114.0 L323.0,113.6 L321.3,113.1 L319.5,112.7 L317.8,112.2 L316.1,111.7 L314.3,111.2 L312.6,110.7 L310.9,110.2 L309.1,109.7 L307.4,109.2 L305.7,108.6 L304.0,108.0 L302.2,107.5 L300.5,106.9 L298.8,106.3 L297.0,105.6 L295.3,105.0 L293.6,104.4 L291.8,103.7 L290.1,103.0 L288.4,102.3 L286.7,101.6 L284.9,100.9 L283.2,100.1 L281.5,99.4 L279.7,98.6 L278.0,97.8 Z" fill="#00897B" opacity="0.14"/><path d="M278.0,75.0 L279.7,75.8 L281.5,76.6 L283.2,77.3 L284.9,78.1 L286.7,78.8 L288.4,79.5 L290.1,80.2 L291.8,80.9 L293.6,81.6 L295.3,82.2 L297.0,82.8 L298.8,83.5 L300.5,84.1 L302.2,84.7 L304.0,85.2 L305.7,85.8 L307.4,86.4 L309.1,86.9 L310.9,87.4 L312.6,87.9 L314.3,88.4 L316.1,88.9 L317.8,89.4 L319.5,89.9 L321.3,90.3 L323.0,90.8 L324.7,91.2 L326.4,91.6 L328.2,92.1 L329.9,92.5 L331.6,92.9 L333.4,93.2 L335.1,93.6 L336.8,94.0 L338.6,94.4 L340.3,94.7 L342.0,95.1 L343.8,95.4 L345.5,95.7 L347.2,96.1 L348.9,96.4 L350.7,96.7 L352.4,97.0 L354.1,97.3 L355.9,97.6 L357.6,97.8 L359.3,98.1 L361.1,98.4 L362.8,98.6 L364.5,98.9 L366.2,99.2 L368.0,99.4 L369.7,99.6 L371.4,99.9 L373.2,100.1 L374.9,100.3 L376.6,100.5 L378.4,100.7 L380.1,101.0 L381.8,101.2 L383.6,101.4 L385.3,101.6 L387.0,101.7 L388.7,101.9 L390.5,102.1 L392.2,102.3 L393.9,102.5 L395.7,102.6 L397.4,102.8 L399.1,103.0 L400.9,103.1 L402.6,103.3 L404.3,103.4 L406.0,103.6 L407.8,103.7 L409.5,103.8 L411.2,104.0 L413.0,104.1 L414.7,104.2 L416.4,104.4 L418.2,104.5 L419.9,104.6 L421.6,104.7 L423.3,104.9 L425.1,105.0 L426.8,105.1 L428.5,105.2 L430.3,105.3 L432.0,105.4 L432.0,121.0 L430.3,120.9 L428.5,120.8 L426.8,120.7 L425.1,120.6 L423.3,120.5 L421.6,120.3 L419.9,120.2 L418.2,120.1 L416.4,120.0 L414.7,119.8 L413.0,119.7 L411.2,119.6 L409.5,119.4 L407.8,119.3 L406.0,119.2 L404.3,119.0 L402.6,118.9 L400.9,118.7 L399.1,118.6 L397.4,118.4 L395.7,118.2 L393.9,118.1 L392.2,117.9 L390.5,117.7 L388.7,117.5 L387.0,117.3 L385.3,117.2 L383.6,117.0 L381.8,116.8 L380.1,116.6 L378.4,116.3 L376.6,116.1 L374.9,115.9 L373.2,115.7 L371.4,115.5 L369.7,115.2 L368.0,115.0 L366.2,114.8 L364.5,114.5 L362.8,114.2 L361.1,114.0 L359.3,113.7 L357.6,113.4 L355.9,113.2 L354.1,112.9 L352.4,112.6 L350.7,112.3 L348.9,112.0 L347.2,111.7 L345.5,111.3 L343.8,111.0 L342.0,110.7 L340.3,110.3 L338.6,110.0 L336.8,109.6 L335.1,109.2 L333.4,108.8 L331.6,108.5 L329.9,108.1 L328.2,107.7 L326.4,107.2 L324.7,106.8 L323.0,106.4 L321.3,105.9 L319.5,105.5 L317.8,105.0 L316.1,104.5 L314.3,104.0 L312.6,103.5 L310.9,103.0 L309.1,102.5 L307.4,102.0 L305.7,101.4 L304.0,100.8 L302.2,100.3 L300.5,99.7 L298.8,99.1 L297.0,98.4 L295.3,97.8 L293.6,97.2 L291.8,96.5 L290.1,95.8 L288.4,95.1 L286.7,94.4 L284.9,93.7 L283.2,92.9 L281.5,92.2 L279.7,91.4 L278.0,90.6 Z" fill="#00897B" opacity="0.2"/><path d="M278.0,82.8 L279.7,83.6 L281.5,84.4 L283.2,85.1 L284.9,85.9 L286.7,86.6 L288.4,87.3 L290.1,88.0 L291.8,88.7 L293.6,89.4 L295.3,90.0 L297.0,90.6 L298.8,91.3 L300.5,91.9 L302.2,92.5 L304.0,93.0 L305.7,93.6 L307.4,94.2 L309.1,94.7 L310.9,95.2 L312.6,95.7 L314.3,96.2 L316.1,96.7 L317.8,97.2 L319.5,97.7 L321.3,98.1 L323.0,98.6 L324.7,99.0 L326.4,99.4 L328.2,99.9 L329.9,100.3 L331.6,100.7 L333.4,101.0 L335.1,101.4 L336.8,101.8 L338.6,102.2 L340.3,102.5 L342.0,102.9 L343.8,103.2 L345.5,103.5 L347.2,103.9 L348.9,104.2 L350.7,104.5 L352.4,104.8 L354.1,105.1 L355.9,105.4 L357.6,105.6 L359.3,105.9 L361.1,106.2 L362.8,106.4 L364.5,106.7 L366.2,107.0 L368.0,107.2 L369.7,107.4 L371.4,107.7 L373.2,107.9 L374.9,108.1 L376.6,108.3 L378.4,108.5 L380.1,108.8 L381.8,109.0 L383.6,109.2 L385.3,109.4 L387.0,109.5 L388.7,109.7 L390.5,109.9 L392.2,110.1 L393.9,110.3 L395.7,110.4 L397.4,110.6 L399.1,110.8 L400.9,110.9 L402.6,111.1 L404.3,111.2 L406.0,111.4 L407.8,111.5 L409.5,111.6 L411.2,111.8 L413.0,111.9 L414.7,112.0 L416.4,112.2 L418.2,112.3 L419.9,112.4 L421.6,112.5 L423.3,112.7 L425.1,112.8 L426.8,112.9 L428.5,113.0 L430.3,113.1 L432.0,113.2" fill="none" stroke="#00897B" stroke-width="2.1"/><circle cx="283.0" cy="84.6" r="2.6" fill="#1C1C1A" opacity="0.45"/><circle cx="292.0" cy="84.6" r="2.6" fill="#1C1C1A" opacity="0.45"/><circle cx="301.0" cy="100.4" r="2.6" fill="#1C1C1A" opacity="0.45"/><circle cx="310.0" cy="89.1" r="2.6" fill="#1C1C1A" opacity="0.45"/><circle cx="319.0" cy="101.0" r="2.6" fill="#1C1C1A" opacity="0.45"/><circle cx="328.0" cy="113.1" r="2.6" fill="#1C1C1A" opacity="0.45"/><circle cx="337.0" cy="107.3" r="2.6" fill="#1C1C1A" opacity="0.45"/><circle cx="346.0" cy="98.6" r="2.6" fill="#1C1C1A" opacity="0.45"/><circle cx="355.0" cy="102.4" r="2.6" fill="#1C1C1A" opacity="0.45"/><circle cx="364.0" cy="116.3" r="2.6" fill="#1C1C1A" opacity="0.45"/><circle cx="373.0" cy="102.7" r="2.6" fill="#1C1C1A" opacity="0.45"/><circle cx="382.0" cy="109.7" r="2.6" fill="#1C1C1A" opacity="0.45"/><circle cx="391.0" cy="106.4" r="2.6" fill="#1C1C1A" opacity="0.45"/><circle cx="400.0" cy="108.0" r="2.6" fill="#1C1C1A" opacity="0.45"/><circle cx="409.0" cy="121.3" r="2.6" fill="#1C1C1A" opacity="0.45"/><circle cx="418.0" cy="109.3" r="2.6" fill="#1C1C1A" opacity="0.45"/><circle cx="427.0" cy="118.0" r="2.6" fill="#1C1C1A" opacity="0.45"/><line x1="278" y1="197" x2="432" y2="197" stroke="#1C1C1A" stroke-opacity="0.22"/><line x1="278" y1="37" x2="278" y2="197" stroke="#1C1C1A" stroke-opacity="0.22"/><text x="355" y="34" text-anchor="middle" font-size="11.5" fill="#00897B" font-weight="600">after site_transfer()</text><text x="432" y="212" text-anchor="end" font-size="10" fill="#1C1C1A" fill-opacity="0.45">age &#8594;</text><line x1="224" y1="34" x2="224" y2="206" stroke="#1C1C1A" stroke-opacity="0.08"/><text x="115" y="254" text-anchor="middle" font-size="10.5" fill="#1C1C1A" fill-opacity="0.5">new site sits above the reference</text><text x="355" y="254" text-anchor="middle" font-size="10.5" fill="#1C1C1A" fill-opacity="0.5">curves recalibrated to fit it</text></svg>